<?xml version="1.0" encoding="utf-8"?>
<!-- Generator: Adobe Illustrator 19.2.0, SVG Export Plug-In . SVG Version: 6.00 Build 0)  -->
<svg version="1.1" id="Layer_1" xmlns="http://www.w3.org/2000/svg" xmlns:xlink="http://www.w3.org/1999/xlink" x="0px" y="0px"
	 viewBox="0 0 764 507" style="enable-background:new 0 0 764 507;" xml:space="preserve">
<style type="text/css">
	.st0{fill:#0F5373;}
	.st1{fill:#F58960;}
	.st2{fill:#1B1C1C;}
	.st3{fill:#0F1010;}
</style>
<g>
	<path class="st0" d="M133.8,126.9c0,0,128.8,134.3,301.8,146.2c0,0,102.8,13.3,254.9-73c0,0-132.4,117.2-324.4,86
		c0,0-120.4-16.3-230.8-121.8c0,0-37.3,34.9-59.7,98.9C75.6,263.2,67,202.6,133.8,126.9z"/>
	<path class="st1" d="M325.9,19.8c-122.6,34.1-181,95.3-186.4,101.2l0,0l0,0c-0.3,0.3-0.4,0.4-0.4,0.4h0l-0.1,0.1
		c0,0,5.5,6.1,24.1,22.3l1.4-1.6C242,62,325.9,19.8,325.9,19.8z"/>
	<g>
		<path class="st2" d="M88.7,466.6v2.3h-1.6v-0.8H81v18.7h-1.6v-18.7h-6.2v0.8h-1.5v-2.3H88.7z"/>
		<path class="st2" d="M102.2,466.6v9.3h12.4v-9.3h1.6v20.2h-1.6v-9.3h-12.4v9.3h-1.6v-20.2H102.2z"/>
		<path class="st2" d="M131.3,475.9h7.8v1.6h-7.8v7.8h10.9v-0.8h1.6v2.4h-14v-18.7H129v-1.5h13.2v2.3h-1.6v-0.8h-9.3V475.9z"/>
		<path class="st2" d="M197.2,476.7c0,5.7-4.5,10.5-10.1,10.5c-5.6,0-10.1-4.8-10.1-10.5c0-5.7,4.5-10.5,10.1-10.5
			C192.8,466.2,197.2,470.9,197.2,476.7z M187.1,485.6c4.7,0,8.5-4,8.5-8.9c0-5-3.9-9-8.5-9c-4.7,0-8.6,4-8.6,9
			C178.6,481.7,182.5,485.6,187.1,485.6z"/>
		<path class="st2" d="M221.4,485.1l-3.2-3.9c-1.6-2-1.6-2.3-4.4-2.3h-3.1v7.8h-1.6v-18.7h-0.7v-1.5h7.4c5,0,7.4,2.9,7.4,5.9
			c0,2.7-1.8,5.3-5.4,6.1c0.5,0.4,1,0.9,1.6,1.7l3.2,3.9c0.7,0.9,1,1.1,1.6,1.1h0.6v1.6h-0.6C223.1,486.8,222.4,486.4,221.4,485.1z
			 M221.6,472.6c0-2.3-1.8-4.4-5.8-4.4h-5.1v9.4h5C219.6,477.5,221.6,474.9,221.6,472.6z"/>
		<path class="st2" d="M235.9,468.1v-1.5h7.2c5.9,0,10.7,4.5,10.7,10.1c0,5.6-4.7,10.1-10.7,10.1h-6.4v-18.7H235.9z M243.2,485.2
			c5,0,9.1-3.8,9.1-8.5c0-4.7-4.1-8.6-9.1-8.6h-5v17.1H243.2z"/>
		<path class="st2" d="M267.3,475.9h7.8v1.6h-7.8v7.8h10.9v-0.8h1.6v2.4h-14v-18.7H265v-1.5h13.2v2.3h-1.6v-0.8h-9.3V475.9z"/>
		<path class="st2" d="M303.9,485.1l-3.2-3.9c-1.6-2-1.6-2.3-4.4-2.3h-3.1v7.8h-1.6v-18.7H291v-1.5h7.4c5,0,7.4,2.9,7.4,5.9
			c0,2.7-1.8,5.3-5.4,6.1c0.5,0.4,1,0.9,1.6,1.7l3.2,3.9c0.7,0.9,1,1.1,1.6,1.1h0.6v1.6h-0.6C305.6,486.8,305,486.4,303.9,485.1z
			 M304.2,472.6c0-2.3-1.8-4.4-5.8-4.4h-5.1v9.4h5C302.1,477.5,304.2,474.9,304.2,472.6z"/>
		<path class="st2" d="M360.8,476.7c0,5.7-4.5,10.5-10.1,10.5c-5.6,0-10.1-4.8-10.1-10.5c0-5.7,4.5-10.5,10.1-10.5
			C356.3,466.2,360.8,470.9,360.8,476.7z M350.7,485.6c4.7,0,8.5-4,8.5-8.9c0-5-3.9-9-8.5-9c-4.7,0-8.6,4-8.6,9
			C342.1,481.7,346,485.6,350.7,485.6z"/>
		<path class="st2" d="M371.9,468.1v-1.5h14.8v2.3h-1.6v-0.8h-10.9v7.8h7.8v1.6h-7.8v9.3h-1.6v-18.7H371.9z"/>
		<path class="st2" d="M437.1,466.6v2.3h-1.6v-0.8h-6.2v18.7h-1.6v-18.7h-6.2v0.8H420v-2.3H437.1z"/>
		<path class="st2" d="M450.6,475.9h7.8v1.6h-7.8v7.8h10.9v-0.8h1.6v2.4h-14v-18.7h-0.7v-1.5h13.2v2.3h-1.6v-0.8h-9.3V475.9z"/>
		<path class="st2" d="M483.1,467.7c-4.9,0-9,4-9,9c0,4.9,4.1,8.9,9,8.9c2.6,0,4.9-1.1,6.5-2.8l1.2,1.1c-2,2-4.7,3.3-7.7,3.3
			c-5.8,0-10.5-4.7-10.5-10.5c0-5.8,4.7-10.5,10.5-10.5c2.7,0,5.2,1.1,7.1,2.8l0.3,0.2v1.3H489v-0.6
			C487.4,468.5,485.4,467.7,483.1,467.7z"/>
		<path class="st2" d="M504,466.6v9.3h12.5v-9.3h1.6v20.2h-1.6v-9.3H504v9.3h-1.6v-20.2H504z"/>
		<path class="st2" d="M545.6,484.4v-17.9h1.6v20.6h-1.6l-12.4-18.3v17.9h-1.6v-18.7h-0.7v-1.5h2.6L545.6,484.4z"/>
		<path class="st2" d="M579.3,476.7c0,5.7-4.5,10.5-10.1,10.5c-5.6,0-10.1-4.8-10.1-10.5c0-5.7,4.5-10.5,10.1-10.5
			C574.8,466.2,579.3,470.9,579.3,476.7z M569.2,485.6c4.7,0,8.5-4,8.5-8.9c0-5-3.9-9-8.5-9c-4.7,0-8.6,4-8.6,9
			C560.6,481.7,564.5,485.6,569.2,485.6z"/>
		<path class="st2" d="M605.2,484.4v2.4h-14v-20.2h1.6v18.6h10.9v-0.8H605.2z"/>
		<path class="st2" d="M634.3,476.7c0,5.7-4.5,10.5-10.1,10.5c-5.6,0-10.1-4.8-10.1-10.5c0-5.7,4.5-10.5,10.1-10.5
			C629.8,466.2,634.3,470.9,634.3,476.7z M624.2,485.6c4.7,0,8.5-4,8.5-8.9c0-5-3.9-9-8.5-9c-4.7,0-8.6,4-8.6,9
			C615.6,481.7,619.5,485.6,624.2,485.6z"/>
		<path class="st2" d="M661,469.9c-1.6-1.4-3.6-2.2-5.8-2.2c-4.9,0-9,4-9,9c0,5,4,8.9,9,8.9c2.4,0,5.4-1.6,6.6-3.4V479h-4.1v-1.5
			h5.6v9.3H662l-0.2-2.9h0c-1.6,1.7-4,3.3-6.6,3.3c-5.8,0-10.5-4.7-10.5-10.5c0-5.8,4.7-10.5,10.5-10.5c2.7,0,5.2,1.1,7.1,2.8
			l0.3,0.2"/>
		<path class="st2" d="M673.4,466.6h1.8l7.1,11.3l7.5-11.9l1.4,0.9l-8.1,12.8v7.2h-1.6v-7.2l-7.2-11.5"/>
	</g>
	<g>
		<path class="st3" d="M123.4,352.7l-23.9,27.7l25.2,30.6c3,3.7,4,4,5.9,4h2.1v5.7h-2.1c-4.3,0-6.3-1.4-10.1-6l-24.7-29.9L81.7,401
			h-0.2v19.6h-5.7v-73.5h5.7v45.3l39.1-45.3"/>
		<path class="st3" d="M200.4,359.2c-5.9-4.9-13-7.9-21.2-7.9c-17.9,0-32.6,14.7-32.6,32.6c0,17.9,14.7,32.5,32.6,32.5
			c9.4,0,17.7-4,23.8-10.3l4.3,4c-7.1,7.5-17,12-28,12c-21.1,0-38.2-17.1-38.2-38.2c0-21.1,17.1-38.2,38.2-38.2c10,0,19,4,25.8,10.1
			l0.9,0.8"/>
		<path class="st3" d="M290.9,383.9c0,20.9-16.3,38.2-36.8,38.2c-20.4,0-36.8-17.3-36.8-38.2c0-20.9,16.3-38.2,36.8-38.2
			C274.5,345.7,290.9,363,290.9,383.9z M254.1,416.4c17,0,31.1-14.4,31.1-32.5c0-18.1-14.1-32.6-31.1-32.6
			c-17,0-31.2,14.6-31.2,32.6C222.9,402,237.2,416.4,254.1,416.4z"/>
		<path class="st3" d="M302.7,415l8.9-69.2h4.4l34.1,69.1l34.1-69.1h4.4l9.7,74.6l-5.7,0.9l-8.2-63.4l-31.5,64.2h-5.4l-31.5-64.2
			l-8.2,62.7h-5.5"/>
		<path class="st3" d="M415.2,347.2h29.6c14.9,0,26.9,11.1,26.9,25.3c0,14.3-11.7,25.5-26.1,25.5h-24.9v22.7h-5.7v-68 M420.8,392.3
			h23.9c11.7,0,21.4-8.7,21.4-19.8c0-11.1-9.7-19.8-21.4-19.8h-23.9V392.3z"/>
		<path class="st3" d="M303,420.7"/>
		<path class="st3" d="M539.6,347.2v46.6c0,12.5-10.1,22.7-22.7,22.7c-12.5,0-22.7-10.1-22.7-22.7v-46.6h-5.7v5.5v2.7v38.3
			c0,15.5,12.8,28.4,28.4,28.4c15.5,0,28.4-12.8,28.4-28.4v-46.6H539.6z"/>
		<polygon class="st3" points="618.8,352.7 624.5,352.7 624.5,347.2 562.3,347.2 562.3,352.7 567.8,352.7 573,352.7 590.5,352.7 
			590.5,420.7 596.2,420.7 596.2,352.7 615.5,352.7 		"/>
		<polygon class="st3" points="686.7,415 686.7,415 647,415 647,386.8 675.4,386.8 675.4,381.1 647,381.1 647,352.7 678.2,352.7 
			681,352.7 686.7,352.7 686.7,347.2 641.3,347.2 641.3,352.7 641.3,362.2 641.3,420.7 692.4,420.7 692.4,415 		"/>
	</g>
</g>
</svg>
